{
  "accessors": [
    {
      "bufferView": 0,
      "componentType": 5126,
      "count": 65535,
      "max": [
        9.7242612838745117,
        10.644640922546387,
        11.624820709228516
      ],
      "min": [
        -15.470426559448242,
        -12.834139823913574,
        -12.237826347351074
      ],
      "type": "VEC3"
    },
    {
      "bufferView": 1,
      "componentType": 5126,
      "count": 65535,
      "max": [
        1,
        1,
        1,
        1
      ],
      "min": [
        0.7607843279838562,
        0.79607844352722168,
        0.63529413938522339,
        1
      ],
      "type": "VEC4"
    },
    {
      "bufferView": 0,
      "byteOffset": 786420,
      "componentType": 5126,
      "count": 65535,
      "max": [
        9.9341907501220703,
        10.387962341308594,
        11.615646362304688
      ],
      "min": [
        -15.763755798339844,
        -12.821645736694336,
        -12.016130447387695
      ],
      "type": "VEC3"
    },
    {
      "bufferView": 1,
      "byteOffset": 1048560,
      "componentType": 5126,
      "count": 65535,
      "max": [
        1,
        1,
        1,
        1
      ],
      "min": [
        0.7607843279838562,
        0.80392158031463623,
        0.64705884456634521,
        1
      ],
      "type": "VEC4"
    },
    {
      "bufferView": 0,
      "byteOffset": 1572840,
      "componentType": 5126,
      "count": 65535,
      "max": [
        9.7202129364013672,
        11.236507415771484,
        12.679802894592285
      ],
      "min": [
        -15.250092506408691,
        -12.999619483947754,
        -11.665622711181641
      ],
      "type": "VEC3"
    },
    {
      "bufferView": 1,
      "byteOffset": 2097120,
      "componentType": 5126,
      "count": 65535,
      "max": [
        1,
        1,
        1,
        1
      ],
      "min": [
        0.7607843279838562,
        0.79607844352722168,
        0.63529413938522339,
        1
      ],
      "type": "VEC4"
    },
    {
      "bufferView": 0,
      "byteOffset": 2359260,
      "componentType": 5126,
      "count": 65535,
      "max": [
        9.5325288772583008,
        10.733585357666016,
        11.964917182922363
      ],
      "min": [
        -15.329896926879883,
        -12.942923545837402,
        -13.10789966583252
      ],
      "type": "VEC3"
    },
    {
      "bufferView": 1,
      "byteOffset": 3145680,
      "componentType": 5126,
      "count": 65535,
      "max": [
        1,
        1,
        1,
        1
      ],
      "min": [
        0.7607843279838562,
        0.80000001192092896,
        0.63529413938522339,
        1
      ],
      "type": "VEC4"
    },
    {
      "bufferView": 0,
      "byteOffset": 3145680,
      "componentType": 5126,
      "count": 37860,
      "max": [
        9.7761306762695312,
        10.950039863586426,
        12.079890251159668
      ],
      "min": [
        -15.343465805053711,
        -12.290109634399414,
        -13.024101257324219
      ],
      "type": "VEC3"
    },
    {
      "bufferView": 1,
      "byteOffset": 4194240,
      "componentType": 5126,
      "count": 37860,
      "max": [
        1,
        1,
        1,
        1
      ],
      "min": [
        0.7607843279838562,
        0.80784314870834351,
        0.65490198135375977,
        1
      ],
      "type": "VEC4"
    }
  ],
  "asset": {
    "extras": {
      "author": "Loïc Norgeot (https://sketchfab.com/norgeotloic)",
      "license": "CC-BY-4.0 (http://creativecommons.org/licenses/by/4.0/)",
      "source": "https://sketchfab.com/3d-models/particles-tests-2-8a3015316ca04c69933f0788fc705320",
      "title": "Particles Tests - 2"
    },
    "generator": "Sketchfab-7.82.0",
    "version": "2.0"
  },
  "bufferViews": [
    {
      "buffer": 0,
      "byteLength": 3600000,
      "byteOffset": 0,
      "byteStride": 12,
      "name": "floatBufferViews",
      "target": 34962
    },
    {
      "buffer": 0,
      "byteLength": 4800000,
      "byteOffset": 3600000,
      "byteStride": 16,
      "name": "floatBufferViews",
      "target": 34962
    }
  ],
  "buffers": [
    {
      "byteLength": 8400000,
      "uri": "scene.bin"
    }
  ],
  "extensionsUsed": [
    "KHR_materials_unlit"
  ],
  "materials": [
    {
      "alphaMode": "BLEND",
      "doubleSided": true,
      "extensions": {
        "KHR_materials_unlit": {}
      },
      "name": "Scene_-_Root",
      "pbrMetallicRoughness": {
        "baseColorFactor": [
          1,
          1,
          1,
          0.28220274390243905
        ],
        "metallicFactor": 0,
        "roughnessFactor": 1
      }
    }
  ],
  "meshes": [
    {
      "primitives": [
        {
          "attributes": {
            "COLOR_0": 1,
            "POSITION": 0
          },
          "material": 0,
          "mode": 0
        }
      ]
    },
    {
      "primitives": [
        {
          "attributes": {
            "COLOR_0": 3,
            "POSITION": 2
          },
          "material": 0,
          "mode": 0
        }
      ]
    },
    {
      "primitives": [
        {
          "attributes": {
            "COLOR_0": 5,
            "POSITION": 4
          },
          "material": 0,
          "mode": 0
        }
      ]
    },
    {
      "primitives": [
        {
          "attributes": {
            "COLOR_0": 7,
            "POSITION": 6
          },
          "material": 0,
          "mode": 0
        }
      ]
    },
    {
      "primitives": [
        {
          "attributes": {
            "COLOR_0": 9,
            "POSITION": 8
          },
          "material": 0,
          "mode": 0
        }
      ]
    }
  ],
  "nodes": [
    {
      "children": [
        1
      ],
      "name": "RootNode (gltf orientation matrix)",
      "rotation": [
        -0.70710678118654746,
        -0,
        -0,
        0.70710678118654757
      ]
    },
    {
      "children": [
        2
      ],
      "name": "RootNode (model correction matrix)"
    },
    {
      "children": [
        3,
        4,
        5,
        6,
        7
      ],
      "name": "Geode"
    },
    {
      "mesh": 0,
      "name": ""
    },
    {
      "mesh": 1,
      "name": ""
    },
    {
      "mesh": 2,
      "name": ""
    },
    {
      "mesh": 3,
      "name": ""
    },
    {
      "mesh": 4,
      "name": ""
    }
  ],
  "scene": 0,
  "scenes": [
    {
      "name": "OSG_Scene",
      "nodes": [
        0
      ]
    }
  ]
}

