{
  "accessors": [
    {
      "bufferView": 1,
      "componentType": 5126,
      "count": 60,
      "max": [
        0.89442002773284912,
        0.85063999891281128,
        1
      ],
      "min": [
        -0.89442002773284912,
        -0.85063999891281128,
        -1
      ],
      "type": "VEC3"
    },
    {
      "bufferView": 1,
      "byteOffset": 720,
      "componentType": 5126,
      "count": 60,
      "max": [
        0.98224562406539917,
        0.93417000770568848,
        0.79465383291244507
      ],
      "min": [
        -0.98224562406539917,
        -0.93417000770568848,
        -0.79465383291244507
      ],
      "type": "VEC3"
    },
    {
      "bufferView": 0,
      "componentType": 5125,
      "count": 60,
      "max": [
        59
      ],
      "min": [
        0
      ],
      "type": "SCALAR"
    },
    {
      "bufferView": 1,
      "byteOffset": 1440,
      "componentType": 5126,
      "count": 39984,
      "max": [
        545.71343994140625,
        360.02691650390625,
        325.35775756835938
      ],
      "min": [
        -448.987060546875,
        -316.41476440429688,
        -589.13165283203125
      ],
      "type": "VEC3"
    },
    {
      "bufferView": 1,
      "byteOffset": 481248,
      "componentType": 5126,
      "count": 39984,
      "max": [
        0.99956583976745605,
        0.99983561038970947,
        1
      ],
      "min": [
        -0.99984771013259888,
        -0.99961394071578979,
        -0.99990499019622803
      ],
      "type": "VEC3"
    },
    {
      "bufferView": 1,
      "byteOffset": 961056,
      "componentType": 5126,
      "count": 39984,
      "max": [
        1,
        0.97647058963775635,
        1
      ],
      "min": [
        0.62745100259780884,
        0,
        0
      ],
      "type": "VEC3"
    },
    {
      "bufferView": 0,
      "byteOffset": 240,
      "componentType": 5125,
      "count": 59976,
      "max": [
        39983
      ],
      "min": [
        0
      ],
      "type": "SCALAR"
    }
  ],
  "asset": {
    "extras": {
      "author": "Loïc Norgeot (https://sketchfab.com/norgeotloic)",
      "license": "CC-BY-4.0 (http://creativecommons.org/licenses/by/4.0/)",
      "source": "https://sketchfab.com/3d-models/our-corner-of-universe-37476c8aaba148fbaf4b6c3664545995",
      "title": "Our corner of universe"
    },
    "generator": "Sketchfab-5.84.2",
    "version": "2.0"
  },
  "bufferViews": [
    {
      "buffer": 0,
      "byteLength": 240144,
      "byteOffset": 0,
      "name": "floatBufferViews",
      "target": 34963
    },
    {
      "buffer": 0,
      "byteLength": 1440864,
      "byteOffset": 240144,
      "byteStride": 12,
      "name": "floatBufferViews",
      "target": 34962
    }
  ],
  "buffers": [
    {
      "byteLength": 1681008,
      "uri": "scene.bin"
    }
  ],
  "materials": [
    {
      "alphaMode": "BLEND",
      "doubleSided": true,
      "emissiveFactor": [
        0.16000000238000001,
        0.16000000238000001,
        0.16000000238000001
      ],
      "name": "Material",
      "pbrMetallicRoughness": {
        "baseColorFactor": [
          1,
          1,
          1,
          0.487654321
        ],
        "metallicFactor": 1,
        "roughnessFactor": 0.62962962960000002
      }
    },
    {
      "alphaMode": "BLEND",
      "doubleSided": true,
      "emissiveFactor": [
        0,
        0,
        0
      ],
      "name": "earth",
      "pbrMetallicRoughness": {
        "baseColorFactor": [
          0.0042757968911568108,
          0.010139914171127765,
          0.025724065098789453,
          0.41975308639999998
        ],
        "metallicFactor": 0.53703703700000005,
        "roughnessFactor": 0
      }
    }
  ],
  "meshes": [
    {
      "name": "Earth_0",
      "primitives": [
        {
          "attributes": {
            "NORMAL": 1,
            "POSITION": 0
          },
          "indices": 2,
          "material": 1,
          "mode": 4
        }
      ]
    },
    {
      "name": "Plane.8968_0",
      "primitives": [
        {
          "attributes": {
            "COLOR_0": 5,
            "NORMAL": 4,
            "POSITION": 3
          },
          "indices": 6,
          "material": 0,
          "mode": 4
        }
      ]
    }
  ],
  "nodes": [
    {
      "children": [
        1
      ],
      "name": "RootNode (gltf orientation matrix)",
      "rotation": [
        -0.70710678118654746,
        -0,
        -0,
        0.70710678118654757
      ]
    },
    {
      "children": [
        2
      ],
      "name": "RootNode (model correction matrix)"
    },
    {
      "children": [
        3,
        5
      ],
      "name": "Root"
    },
    {
      "children": [
        4
      ],
      "name": "Earth"
    },
    {
      "mesh": 0,
      "name": "Earth_0"
    },
    {
      "children": [
        6
      ],
      "matrix": [
        -0.17308000000000001,
        -0.07041,
        -0.60357000000000005,
        0,
        0.54896,
        -0.28722999999999999,
        -0.12391000000000001,
        0,
        -0.26057000000000002,
        -0.55834000000000006,
        0.13986000000000001,
        0,
        -7.6511699999999996,
        -2.7246600000000001,
        -2.6878000000000002,
        1
      ],
      "name": "Plane.8968"
    },
    {
      "mesh": 1,
      "name": "Plane.8968_0"
    }
  ],
  "scene": 0,
  "scenes": [
    {
      "name": "OSG_Scene",
      "nodes": [
        0
      ]
    }
  ]
}

